<?xml version="1.0" encoding="UTF-8"?>
<svg id="Ebene_1" data-name="Ebene 1" xmlns="http://www.w3.org/2000/svg" xmlns:xlink="http://www.w3.org/1999/xlink" viewBox="0 0 1179 2556">
  <defs>
    <style>
      .cls-1 {
        fill: #fff;
      }

      .cls-2 {
        fill: #2fb6b6;
      }

      .cls-3 {
        filter: url(#drop-shadow-1);
      }
    </style>
    <filter id="drop-shadow-1" filterUnits="userSpaceOnUse">
      <feOffset dx="0" dy="0"/>
      <feGaussianBlur result="blur" stdDeviation="14"/>
      <feFlood flood-color="#fff" flood-opacity="1"/>
      <feComposite in2="blur" operator="in"/>
      <feComposite in="SourceGraphic"/>
    </filter>
  </defs>
  <rect class="cls-2" width="1179" height="2556"/>
  <g>
    <path class="cls-1" d="M219.55908203125,1520.033203125c0,2.142578125-.52783203125,4.4599609375-1.58349609375,6.9541015625s-2.7158203125,4.94140625-4.97998046875,7.34375c-2.2646484375,2.40234375-5.15625,4.3525390625-8.6748046875,5.8515625-3.51904296875,1.4990234375-7.619140625,2.2490234375-12.30078125,2.2490234375-3.5498046875,0-6.77783203125-.3369140625-9.6845703125-1.009765625-2.9072265625-.6728515625-5.54638671875-1.7216796875-7.91748046875-3.1435546875-2.37158203125-1.423828125-4.5517578125-3.296875-6.54052734375-5.623046875-1.77490234375-2.111328125-3.28955078125-4.474609375-4.5439453125-7.091796875-1.2548828125-2.615234375-2.19580078125-5.4072265625-2.82275390625-8.3759765625-.62744140625-2.9677734375-.94091796875-6.119140625-.94091796875-9.455078125,0-5.416015625,.78759765625-10.265625,2.36376953125-14.5498046875,1.57568359375-4.283203125,3.83251953125-7.947265625,6.77001953125-10.9921875s6.3798828125-5.3623046875,10.3271484375-6.9541015625c3.947265625-1.5908203125,8.154296875-2.38671875,12.6220703125-2.38671875,5.4462890625,0,10.29638671875,1.0869140625,14.5498046875,3.2587890625,4.2529296875,2.1728515625,7.51171875,4.8583984375,9.7763671875,8.0546875,2.26416015625,3.1982421875,3.396484375,6.2197265625,3.396484375,9.0654296875,0,1.560546875-.55078125,2.9375-1.65234375,4.130859375s-2.4326171875,1.7900390625-3.9931640625,1.7900390625c-1.744140625,0-3.05224609375-.4130859375-3.92431640625-1.2392578125s-1.84375-2.2490234375-2.91455078125-4.2685546875c-1.77490234375-3.3349609375-3.86328125-5.8291015625-6.26513671875-7.4814453125-2.40234375-1.65234375-5.36279296875-2.478515625-8.88134765625-2.478515625-5.599609375,0-10.0595703125,2.126953125-13.37939453125,6.3798828125-3.3203125,4.25390625-4.97998046875,10.296875-4.97998046875,18.1298828125,0,5.232421875,.734375,9.5859375,2.203125,13.0576171875,1.46875,3.4736328125,3.54931640625,6.0673828125,6.2421875,7.7802734375,2.6923828125,1.7138671875,5.84423828125,2.5703125,9.455078125,2.5703125,3.91650390625,0,7.22900390625-.970703125,9.93701171875-2.9150390625,2.7080078125-1.9423828125,4.75048828125-4.7958984375,6.12744140625-8.5595703125,.5810546875-1.7744140625,1.30029296875-3.2197265625,2.1572265625-4.3369140625,.8564453125-1.1171875,2.2333984375-1.67578125,4.130859375-1.67578125,1.62158203125,0,3.013671875,.56640625,4.1767578125,1.6982421875,1.16259765625,1.1328125,1.744140625,2.5400390625,1.744140625,4.22265625Z"/>
    <path class="cls-1" d="M277.85009765625,1516.9580078125c0,3.7333984375-.58154296875,7.17578125-1.744140625,10.3271484375-1.1630859375,3.15234375-2.845703125,5.8603515625-5.048828125,8.1240234375-2.203125,2.2646484375-4.8349609375,4.0009765625-7.89453125,5.208984375-3.06005859375,1.208984375-6.50244140625,1.8134765625-10.3271484375,1.8134765625-3.79443359375,0-7.2060546875-.6123046875-10.2353515625-1.8359375s-5.6533203125-2.9755859375-7.87158203125-5.2548828125c-2.21875-2.279296875-3.9013671875-4.97265625-5.048828125-8.078125s-1.72119140625-6.541015625-1.72119140625-10.3046875c0-3.7939453125,.5810546875-7.2666015625,1.744140625-10.4189453125,1.16259765625-3.1513671875,2.830078125-5.84375,5.0029296875-8.078125,2.17236328125-2.2333984375,4.8037109375-3.9541015625,7.89453125-5.1630859375,3.09033203125-1.208984375,6.501953125-1.8134765625,10.2353515625-1.8134765625,3.7939453125,0,7.236328125,.6123046875,10.3271484375,1.8359375,3.09033203125,1.224609375,5.7373046875,2.96875,7.9404296875,5.232421875,2.203125,2.2646484375,3.87841796875,4.95703125,5.02587890625,8.078125s1.72119140625,6.5634765625,1.72119140625,10.3271484375Zm-12.576171875,0c0-5.109375-1.12451171875-9.087890625-3.37353515625-11.93359375s-5.27099609375-4.2685546875-9.06494140625-4.2685546875c-2.4482421875,0-4.60546875,.6357421875-6.4716796875,1.9052734375-1.86669921875,1.26953125-3.3046875,3.1435546875-4.314453125,5.6220703125s-1.5146484375,5.3701171875-1.5146484375,8.6748046875c0,3.2744140625,.4970703125,6.1357421875,1.49169921875,8.5830078125,.994140625,2.4482421875,2.4169921875,4.322265625,4.2685546875,5.6220703125,1.85107421875,1.3017578125,4.03125,1.951171875,6.54052734375,1.951171875,3.7939453125,0,6.81591796875-1.4296875,9.06494140625-4.291015625s3.37353515625-6.81640625,3.37353515625-11.865234375Z"/>
    <path class="cls-1" d="M329.39404296875,1517.8759765625v16.6611328125c0,2.6318359375-.5966796875,4.60546875-1.7900390625,5.9208984375s-2.76953125,1.9736328125-4.7275390625,1.9736328125c-1.8974609375,0-3.43505859375-.658203125-4.61279296875-1.9736328125-1.17822265625-1.3154296875-1.76708984375-3.2890625-1.76708984375-5.9208984375v-19.9658203125c0-3.1513671875-.107421875-5.599609375-.3212890625-7.34375-.21435546875-1.744140625-.7958984375-3.173828125-1.744140625-4.291015625-.94873046875-1.1171875-2.4482421875-1.67578125-4.498046875-1.67578125-4.1005859375,0-6.80078125,1.408203125-8.10107421875,4.22265625-1.30078125,2.8154296875-1.95068359375,6.8544921875-1.95068359375,12.1171875v16.9365234375c0,2.6015625-.58935546875,4.5673828125-1.76708984375,5.8974609375-1.17822265625,1.33203125-2.73095703125,1.9970703125-4.65869140625,1.9970703125-1.8974609375,0-3.4501953125-.6650390625-4.65869140625-1.9970703125-1.208984375-1.330078125-1.81298828125-3.2958984375-1.81298828125-5.8974609375v-35.8466796875c0-2.35546875,.54296875-4.1455078125,1.62939453125-5.3701171875,1.0859375-1.2236328125,2.5166015625-1.8359375,4.29150390625-1.8359375,1.71337890625,0,3.14404296875,.5732421875,4.29150390625,1.7216796875,1.1474609375,1.146484375,1.72119140625,2.73046875,1.72119140625,4.75v1.193359375c2.17236328125-2.6005859375,4.498046875-4.5126953125,6.9765625-5.7373046875,2.478515625-1.2236328125,5.232421875-1.8359375,8.26171875-1.8359375,3.1513671875,0,5.859375,.6279296875,8.1240234375,1.8818359375,2.26416015625,1.2548828125,4.130859375,3.15234375,5.599609375,5.69140625,2.111328125-2.5703125,4.37548828125-4.474609375,6.79296875-5.71484375,2.4169921875-1.23828125,5.0947265625-1.8583984375,8.0322265625-1.8583984375,3.4267578125,0,6.3798828125,.673828125,8.8583984375,2.01953125,2.478515625,1.3466796875,4.32958984375,3.2744140625,5.5537109375,5.783203125,1.07080078125,2.2646484375,1.6064453125,5.8291015625,1.6064453125,10.6943359375v24.4638671875c0,2.6318359375-.5966796875,4.60546875-1.7900390625,5.9208984375s-2.76953125,1.9736328125-4.7275390625,1.9736328125c-1.8974609375,0-3.4501953125-.6650390625-4.65869140625-1.9970703125-1.208984375-1.330078125-1.81298828125-3.2958984375-1.81298828125-5.8974609375v-21.0673828125c0-2.6923828125-.11474609375-4.849609375-.34423828125-6.4716796875-.2294921875-1.62109375-.84912109375-2.9833984375-1.85888671875-4.0849609375s-2.5400390625-1.65234375-4.58984375-1.65234375c-1.65234375,0-3.220703125,.490234375-4.70458984375,1.46875-1.484375,.9794921875-2.63916015625,2.294921875-3.46533203125,3.947265625-.91796875,2.111328125-1.376953125,5.8447265625-1.376953125,11.19921875Z"/>
    <path class="cls-1" d="M377.22021484375,1485.6552734375c-1.744140625,0-3.23583984375-.53515625-4.47509765625-1.6064453125-1.2392578125-1.0703125-1.85888671875-2.5849609375-1.85888671875-4.5439453125,0-1.7744140625,.634765625-3.236328125,1.90478515625-4.3828125,1.26953125-1.1484375,2.74609375-1.7216796875,4.42919921875-1.7216796875,1.62158203125,0,3.0595703125,.5205078125,4.314453125,1.560546875,1.25439453125,1.041015625,1.8818359375,2.5556640625,1.8818359375,4.5439453125,0,1.927734375-.6123046875,3.435546875-1.8359375,4.521484375-1.22412109375,1.0859375-2.677734375,1.62890625-4.3603515625,1.62890625Zm6.1962890625,12.943359375v36.2138671875c0,2.509765625-.5966796875,4.40625-1.7900390625,5.69140625s-2.7080078125,1.927734375-4.5439453125,1.927734375-3.32763671875-.658203125-4.47509765625-1.9736328125-1.72119140625-3.197265625-1.72119140625-5.6455078125v-35.8466796875c0-2.478515625,.57373046875-4.3447265625,1.72119140625-5.599609375,1.1474609375-1.25390625,2.63916015625-1.8818359375,4.47509765625-1.8818359375s3.3505859375,.6279296875,4.5439453125,1.8818359375c1.193359375,1.2548828125,1.7900390625,2.9990234375,1.7900390625,5.232421875Z"/>
    <path class="cls-1" d="M407.74267578125,1498.4150390625v1.5146484375c2.203125-2.90625,4.61279296875-5.041015625,7.22900390625-6.4033203125,2.6162109375-1.3603515625,5.62255859375-2.0419921875,9.01904296875-2.0419921875,3.3046875,0,6.25732421875,.7197265625,8.8583984375,2.1572265625,2.6005859375,1.4384765625,4.5439453125,3.4736328125,5.8291015625,6.1044921875,.826171875,1.5302734375,1.361328125,3.1826171875,1.6064453125,4.95703125,.24462890625,1.775390625,.3671875,4.0390625,.3671875,6.79296875v23.31640625c0,2.509765625-.57373046875,4.40625-1.72119140625,5.69140625s-2.63916015625,1.927734375-4.47509765625,1.927734375c-1.86669921875,0-3.38134765625-.658203125-4.5439453125-1.9736328125-1.1630859375-1.3154296875-1.744140625-3.197265625-1.744140625-5.6455078125v-20.8837890625c0-4.130859375-.57373046875-7.2900390625-1.72119140625-9.478515625-1.1474609375-2.1865234375-3.43505859375-3.28125-6.86181640625-3.28125-2.23388671875,0-4.2685546875,.666015625-6.1044921875,1.99609375-1.8359375,1.33203125-3.1826171875,3.16015625-4.0390625,5.4853515625-.6123046875,1.8671875-.91796875,5.35546875-.91796875,10.46484375v15.697265625c0,2.5400390625-.58935546875,4.4453125-1.76708984375,5.7138671875-1.17822265625,1.26953125-2.70068359375,1.9052734375-4.56689453125,1.9052734375-1.8056640625,0-3.28955078125-.658203125-4.4521484375-1.9736328125-1.1630859375-1.3154296875-1.744140625-3.197265625-1.744140625-5.6455078125v-36.2138671875c0-2.38671875,.52001953125-4.1689453125,1.560546875-5.34765625,1.0400390625-1.1767578125,2.462890625-1.7666015625,4.2685546875-1.7666015625,1.1015625,0,2.095703125,.2607421875,2.9833984375,.7802734375,.88720703125,.5205078125,1.5986328125,1.30078125,2.13427734375,2.3408203125,.53515625,1.041015625,.80322265625,2.310546875,.80322265625,3.8095703125Z"/>
    <path class="cls-1" d="M499.21826171875,1500.6640625v36.3974609375c0,4.162109375-.44384765625,7.7412109375-1.3310546875,10.740234375-.8876953125,2.998046875-2.310546875,5.4765625-4.2685546875,7.435546875-1.95849609375,1.9580078125-4.52099609375,3.4111328125-7.68798828125,4.3603515625-3.1669921875,.9482421875-7.10693359375,1.4228515625-11.81884765625,1.4228515625-4.314453125,0-8.169921875-.6044921875-11.56640625-1.8125-3.396484375-1.2099609375-6.0126953125-2.7705078125-7.8486328125-4.681640625-1.8359375-1.9130859375-2.75390625-3.87890625-2.75390625-5.8984375,0-1.5302734375,.52001953125-2.77734375,1.560546875-3.740234375,1.0400390625-.96484375,2.294921875-1.4462890625,3.763671875-1.4462890625,1.8359375,0,3.4423828125,.810546875,4.8193359375,2.4326171875,.6728515625,.826171875,1.369140625,1.6591796875,2.08837890625,2.501953125,.71875,.8408203125,1.5146484375,1.560546875,2.38671875,2.15625,.8720703125,.59765625,1.919921875,1.0400390625,3.14404296875,1.33203125,1.2236328125,.2900390625,2.63134765625,.435546875,4.22265625,.435546875,3.2431640625,0,5.76025390625-.4521484375,7.55029296875-1.353515625,1.7900390625-.9033203125,3.04443359375-2.166015625,3.763671875-3.787109375,.71875-1.6220703125,1.1396484375-3.3583984375,1.26220703125-5.208984375,.1220703125-1.8515625,.2138671875-4.8271484375,.275390625-8.927734375-1.927734375,2.693359375-4.15380859375,4.7431640625-6.67822265625,6.150390625-2.5244140625,1.408203125-5.53076171875,2.111328125-9.01904296875,2.111328125-4.1923828125,0-7.8564453125-1.0703125-10.99267578125-3.212890625-3.13671875-2.1416015625-5.54638671875-5.140625-7.22900390625-8.99609375-1.68310546875-3.85546875-2.5244140625-8.3076171875-2.5244140625-13.3564453125,0-3.763671875,.51220703125-7.16015625,1.53759765625-10.189453125,1.02490234375-3.029296875,2.48583984375-5.583984375,4.38330078125-7.6650390625,1.89697265625-2.080078125,4.0849609375-3.6484375,6.5634765625-4.705078125,2.478515625-1.0546875,5.20166015625-1.5830078125,8.169921875-1.5830078125,3.54931640625,0,6.62451171875,.681640625,9.2255859375,2.0419921875,2.6005859375,1.3623046875,5.01806640625,3.4970703125,7.251953125,6.4033203125v-1.6982421875c0-2.171875,.53515625-3.85546875,1.6064453125-5.048828125,1.07080078125-1.193359375,2.44775390625-1.7900390625,4.130859375-1.7900390625,2.4169921875,0,4.0234375,.7880859375,4.8193359375,2.3642578125,.79541015625,1.576171875,1.193359375,3.84765625,1.193359375,6.8154296875Zm-36.3056640625,15.880859375c0,5.080078125,1.10888671875,8.919921875,3.32763671875,11.5205078125,2.21826171875,2.6015625,5.0869140625,3.9013671875,8.60595703125,3.9013671875,2.08056640625,0,4.04638671875-.5576171875,5.89794921875-1.6748046875,1.85107421875-1.1171875,3.35791015625-2.80078125,4.52099609375-5.048828125,1.16259765625-2.25,1.744140625-4.98046875,1.744140625-8.193359375,0-5.109375-1.12451171875-9.087890625-3.37353515625-11.93359375s-5.20947265625-4.2685546875-8.88134765625-4.2685546875c-3.580078125,0-6.44873046875,1.3623046875-8.60595703125,4.0849609375-2.1572265625,2.7236328125-3.23583984375,6.5947265625-3.23583984375,11.6123046875Z"/>
    <path class="cls-1" d="M549.98193359375,1481.111328125v19.27734375h29.4208984375v-19.27734375c0-2.75390625,.619140625-4.8193359375,1.859375-6.1962890625,1.23828125-1.376953125,2.8681640625-2.0654296875,4.8876953125-2.0654296875,2.0498046875,0,3.7099609375,.681640625,4.97900390625,2.0419921875,1.26953125,1.3623046875,1.9052734375,3.435546875,1.9052734375,6.2197265625v53.0126953125c0,2.78515625-.642578125,4.865234375-1.927734375,6.2421875-1.28466796875,1.376953125-2.93701171875,2.0654296875-4.95654296875,2.0654296875-2.05078125,0-3.6875-.6962890625-4.9111328125-2.0888671875-1.224609375-1.3916015625-1.8359375-3.46484375-1.8359375-6.21875v-22.6279296875h-29.4208984375v22.6279296875c0,2.78515625-.642578125,4.865234375-1.927734375,6.2421875s-2.9375,2.0654296875-4.95703125,2.0654296875c-2.05078125,0-3.6875-.6962890625-4.9111328125-2.0888671875-1.224609375-1.3916015625-1.8359375-3.46484375-1.8359375-6.21875v-53.0126953125c0-2.75390625,.603515625-4.8193359375,1.8125-6.1962890625s2.853515625-2.0654296875,4.9345703125-2.0654296875c2.0498046875,0,3.7099609375,.681640625,4.9794921875,2.0419921875,1.26953125,1.3623046875,1.9052734375,3.435546875,1.9052734375,6.2197265625Z"/>
    <path class="cls-1" d="M653.7119140625,1516.9580078125c0,3.7333984375-.58203125,7.17578125-1.744140625,10.3271484375-1.1630859375,3.15234375-2.845703125,5.8603515625-5.048828125,8.1240234375-2.203125,2.2646484375-4.8349609375,4.0009765625-7.89453125,5.208984375-3.060546875,1.208984375-6.5029296875,1.8134765625-10.3271484375,1.8134765625-3.794921875,0-7.2060546875-.6123046875-10.2353515625-1.8359375s-5.6533203125-2.9755859375-7.8720703125-5.2548828125-3.900390625-4.97265625-5.048828125-8.078125c-1.146484375-3.10546875-1.720703125-6.541015625-1.720703125-10.3046875,0-3.7939453125,.5810546875-7.2666015625,1.744140625-10.4189453125,1.162109375-3.1513671875,2.830078125-5.84375,5.0029296875-8.078125,2.171875-2.2333984375,4.8037109375-3.9541015625,7.89453125-5.1630859375,3.08984375-1.208984375,6.501953125-1.8134765625,10.2353515625-1.8134765625,3.7939453125,0,7.236328125,.6123046875,10.3271484375,1.8359375,3.08984375,1.224609375,5.7373046875,2.96875,7.9404296875,5.232421875,2.203125,2.2646484375,3.87890625,4.95703125,5.025390625,8.078125,1.1484375,3.12109375,1.7216796875,6.5634765625,1.7216796875,10.3271484375Zm-12.576171875,0c0-5.109375-1.1240234375-9.087890625-3.3740234375-11.93359375-2.248046875-2.845703125-5.2705078125-4.2685546875-9.064453125-4.2685546875-2.4482421875,0-4.60546875,.6357421875-6.4716796875,1.9052734375-1.8671875,1.26953125-3.3046875,3.1435546875-4.314453125,5.6220703125s-1.5146484375,5.3701171875-1.5146484375,8.6748046875c0,3.2744140625,.4970703125,6.1357421875,1.4921875,8.5830078125,.9931640625,2.4482421875,2.416015625,4.322265625,4.267578125,5.6220703125,1.8515625,1.3017578125,4.03125,1.951171875,6.541015625,1.951171875,3.7939453125,0,6.81640625-1.4296875,9.064453125-4.291015625,2.25-2.861328125,3.3740234375-6.81640625,3.3740234375-11.865234375Z"/>
    <path class="cls-1" d="M705.255859375,1517.8759765625v16.6611328125c0,2.6318359375-.5966796875,4.60546875-1.7900390625,5.9208984375s-2.76953125,1.9736328125-4.7275390625,1.9736328125c-1.8974609375,0-3.435546875-.658203125-4.6123046875-1.9736328125-1.1787109375-1.3154296875-1.767578125-3.2890625-1.767578125-5.9208984375v-19.9658203125c0-3.1513671875-.107421875-5.599609375-.3212890625-7.34375-.21484375-1.744140625-.7958984375-3.173828125-1.744140625-4.291015625-.94921875-1.1171875-2.4482421875-1.67578125-4.498046875-1.67578125-4.1005859375,0-6.80078125,1.408203125-8.1005859375,4.22265625-1.3017578125,2.8154296875-1.951171875,6.8544921875-1.951171875,12.1171875v16.9365234375c0,2.6015625-.58984375,4.5673828125-1.767578125,5.8974609375-1.177734375,1.33203125-2.73046875,1.9970703125-4.658203125,1.9970703125-1.8974609375,0-3.4501953125-.6650390625-4.658203125-1.9970703125-1.2099609375-1.330078125-1.8134765625-3.2958984375-1.8134765625-5.8974609375v-35.8466796875c0-2.35546875,.54296875-4.1455078125,1.6298828125-5.3701171875,1.0849609375-1.2236328125,2.515625-1.8359375,4.291015625-1.8359375,1.712890625,0,3.14453125,.5732421875,4.291015625,1.7216796875,1.1484375,1.146484375,1.7216796875,2.73046875,1.7216796875,4.75v1.193359375c2.171875-2.6005859375,4.498046875-4.5126953125,6.9765625-5.7373046875,2.478515625-1.2236328125,5.232421875-1.8359375,8.26171875-1.8359375,3.1513671875,0,5.859375,.6279296875,8.1240234375,1.8818359375,2.263671875,1.2548828125,4.130859375,3.15234375,5.599609375,5.69140625,2.111328125-2.5703125,4.375-4.474609375,6.79296875-5.71484375,2.4169921875-1.23828125,5.0947265625-1.8583984375,8.0322265625-1.8583984375,3.4267578125,0,6.3798828125,.673828125,8.8583984375,2.01953125,2.478515625,1.3466796875,4.3291015625,3.2744140625,5.5537109375,5.783203125,1.0703125,2.2646484375,1.6064453125,5.8291015625,1.6064453125,10.6943359375v24.4638671875c0,2.6318359375-.5966796875,4.60546875-1.7900390625,5.9208984375s-2.76953125,1.9736328125-4.7275390625,1.9736328125c-1.8974609375,0-3.4501953125-.6650390625-4.658203125-1.9970703125-1.2099609375-1.330078125-1.8134765625-3.2958984375-1.8134765625-5.8974609375v-21.0673828125c0-2.6923828125-.1142578125-4.849609375-.3447265625-6.4716796875-.228515625-1.62109375-.8486328125-2.9833984375-1.8583984375-4.0849609375s-2.5400390625-1.65234375-4.58984375-1.65234375c-1.65234375,0-3.220703125,.490234375-4.7041015625,1.46875-1.4853515625,.9794921875-2.6396484375,2.294921875-3.4658203125,3.947265625-.91796875,2.111328125-1.376953125,5.8447265625-1.376953125,11.19921875Z"/>
    <path class="cls-1" d="M781.72265625,1520.033203125h-24.509765625c.0302734375,2.845703125,.603515625,5.35546875,1.7216796875,7.52734375,1.1162109375,2.1728515625,2.599609375,3.8095703125,4.451171875,4.9111328125s3.8935546875,1.65234375,6.1279296875,1.65234375c1.4990234375,0,2.8681640625-.17578125,4.1083984375-.52734375,1.23828125-.3515625,2.439453125-.90234375,3.6025390625-1.65234375,1.162109375-.75,2.2333984375-1.552734375,3.212890625-2.41015625,.978515625-.8564453125,2.2490234375-2.01953125,3.8095703125-3.48828125,.642578125-.55078125,1.560546875-.826171875,2.75390625-.826171875,1.28515625,0,2.3251953125,.3525390625,3.12109375,1.0556640625,.794921875,.7041015625,1.193359375,1.6982421875,1.193359375,2.9833984375,0,1.1328125-.4443359375,2.455078125-1.3310546875,3.970703125-.8876953125,1.513671875-2.2255859375,2.9677734375-4.0166015625,4.359375-1.7890625,1.3935546875-4.0390625,2.5478515625-6.74609375,3.4658203125-2.708984375,.91796875-5.822265625,1.376953125-9.3408203125,1.376953125-8.0478515625,0-14.3056640625-2.294921875-18.7724609375-6.884765625-4.4677734375-4.58984375-6.701171875-10.81640625-6.701171875-18.6806640625,0-3.7021484375,.55078125-7.13671875,1.65234375-10.3046875,1.1015625-3.166015625,2.7080078125-5.8818359375,4.8193359375-8.146484375,2.111328125-2.263671875,4.7119140625-4,7.802734375-5.208984375,3.08984375-1.208984375,6.517578125-1.8134765625,10.28125-1.8134765625,4.8955078125,0,9.0947265625,1.0322265625,12.5986328125,3.0986328125,3.50390625,2.064453125,6.1279296875,4.7353515625,7.8720703125,8.0087890625,1.744140625,3.2744140625,2.6162109375,6.609375,2.6162109375,10.005859375,0,3.15234375-.9033203125,5.1943359375-2.7080078125,6.1279296875-1.8056640625,.93359375-4.345703125,1.3994140625-7.619140625,1.3994140625Zm-24.509765625-7.1142578125h22.7197265625c-.306640625-4.283203125-1.4619140625-7.48828125-3.46484375-9.615234375-2.0048828125-2.126953125-4.64453125-3.1904296875-7.91796875-3.1904296875-3.12109375,0-5.6845703125,1.0791015625-7.6875,3.2353515625-2.0048828125,2.158203125-3.2216796875,5.34765625-3.6494140625,9.5703125Z"/>
    <path class="cls-1" d="M878.109375,1521.0888671875c0,4.0703125-1.048828125,7.7265625-3.14453125,10.9697265625-2.095703125,3.244140625-5.1630859375,5.783203125-9.2021484375,7.619140625s-8.828125,2.75390625-14.3662109375,2.75390625c-6.640625,0-12.1171875-1.25390625-16.431640625-3.763671875-3.060546875-1.8046875-5.546875-4.21484375-7.458984375-7.2294921875-1.912109375-3.0126953125-2.8681640625-5.943359375-2.8681640625-8.7890625,0-1.65234375,.5732421875-3.0673828125,1.7216796875-4.24609375,1.146484375-1.1767578125,2.607421875-1.7666015625,4.3828125-1.7666015625,1.4375,0,2.654296875,.458984375,3.6484375,1.376953125s1.84375,2.2802734375,2.5478515625,4.0849609375c.8564453125,2.142578125,1.7822265625,3.9326171875,2.7763671875,5.3701171875,.994140625,1.4384765625,2.39453125,2.6240234375,4.2001953125,3.5576171875,1.8046875,.93359375,4.1767578125,1.3994140625,7.1142578125,1.3994140625,4.0390625,0,7.3203125-.9404296875,9.845703125-2.8232421875,2.5234375-1.880859375,3.7861328125-4.2294921875,3.7861328125-7.044921875,0-2.2333984375-.681640625-4.0458984375-2.0419921875-5.439453125-1.3623046875-1.3916015625-3.12109375-2.455078125-5.279296875-3.189453125-2.15625-.734375-5.041015625-1.5146484375-8.6513671875-2.3408203125-4.8349609375-1.1318359375-8.8818359375-2.4560546875-12.1396484375-3.9697265625-3.259765625-1.515625-5.845703125-3.580078125-7.7578125-6.197265625-1.912109375-2.615234375-2.8681640625-5.8662109375-2.8681640625-9.7529296875,0-3.7021484375,1.009765625-6.9912109375,3.029296875-9.8681640625,2.01953125-2.8759765625,4.94140625-5.0869140625,8.7666015625-6.6328125,3.82421875-1.5439453125,8.322265625-2.3173828125,13.494140625-2.3173828125,4.130859375,0,7.703125,.5126953125,10.716796875,1.5380859375s5.515625,2.38671875,7.5048828125,4.083984375c1.98828125,1.69921875,3.4423828125,3.4814453125,4.3603515625,5.34765625,.91796875,1.8671875,1.376953125,3.6875,1.376953125,5.4619140625,0,1.6220703125-.57421875,3.0830078125-1.720703125,4.3837890625-1.1484375,1.30078125-2.5791015625,1.9501953125-4.2919921875,1.9501953125-1.560546875,0-2.7470703125-.3896484375-3.5576171875-1.1708984375-.810546875-.779296875-1.6904296875-2.056640625-2.638671875-3.83203125-1.224609375-2.5390625-2.693359375-4.521484375-4.40625-5.943359375-1.7138671875-1.423828125-4.4677734375-2.134765625-8.26171875-2.134765625-3.51953125,0-6.357421875,.7734375-8.513671875,2.318359375-2.158203125,1.544921875-3.236328125,3.404296875-3.236328125,5.576171875,0,1.3466796875,.3671875,2.509765625,1.1015625,3.48828125,.734375,.9794921875,1.744140625,1.8212890625,3.029296875,2.5244140625,1.28515625,.7041015625,2.5849609375,1.2548828125,3.9013671875,1.65234375,1.3154296875,.3984375,3.48828125,.9794921875,6.517578125,1.744140625,3.7939453125,.8876953125,7.2294921875,1.8671875,10.3037109375,2.9375,3.076171875,1.0712890625,5.69140625,2.3720703125,7.849609375,3.9013671875,2.15625,1.5302734375,3.8388671875,3.46484375,5.048828125,5.806640625,1.2080078125,2.33984375,1.8125,5.208984375,1.8125,8.60546875Z"/>
    <path class="cls-1" d="M920.4736328125,1535.36328125c-3.029296875,2.3564453125-5.9599609375,4.1240234375-8.7900390625,5.3017578125-2.830078125,1.1767578125-6.0048828125,1.7666015625-9.5234375,1.7666015625-3.212890625,0-6.03515625-.6357421875-8.46875-1.9052734375-2.431640625-1.2685546875-4.306640625-2.990234375-5.6220703125-5.1630859375-1.31640625-2.171875-1.9736328125-4.5283203125-1.9736328125-7.068359375,0-3.4267578125,1.0859375-6.3486328125,3.2587890625-8.7666015625,2.171875-2.4169921875,5.1552734375-4.0390625,8.9501953125-4.865234375,.794921875-.18359375,2.7685546875-.5966796875,5.9208984375-1.2392578125,3.1513671875-.642578125,5.8525390625-1.2314453125,8.1005859375-1.7666015625,2.25-.53515625,4.689453125-1.185546875,7.3212890625-1.951171875-.1533203125-3.3046875-.8193359375-5.7294921875-1.9970703125-7.275390625-1.177734375-1.5439453125-3.6181640625-2.3173828125-7.3203125-2.3173828125-3.1826171875,0-5.576171875,.4443359375-7.18359375,1.3310546875-1.60546875,.8876953125-2.982421875,2.21875-4.130859375,3.9931640625-1.146484375,1.775390625-1.9580078125,2.9453125-2.431640625,3.5107421875-.4755859375,.5673828125-1.4921875,.849609375-3.052734375,.849609375-1.408203125,0-2.6240234375-.451171875-3.6484375-1.353515625-1.0263671875-.90234375-1.5380859375-2.0576171875-1.5380859375-3.4658203125,0-2.203125,.7802734375-4.3447265625,2.3408203125-6.42578125,1.560546875-2.080078125,3.9931640625-3.7939453125,7.2978515625-5.140625,3.3046875-1.345703125,7.419921875-2.01953125,12.3466796875-2.01953125,5.5078125,0,9.8369140625,.650390625,12.9892578125,1.9501953125,3.1513671875,1.3017578125,5.376953125,3.359375,6.6787109375,6.173828125,1.2998046875,2.8154296875,1.9501953125,6.548828125,1.9501953125,11.19921875,0,2.9375-.0078125,5.431640625-.0224609375,7.4814453125-.0166015625,2.05078125-.0390625,4.330078125-.0693359375,6.8388671875,0,2.3564453125,.3896484375,4.8125,1.1708984375,7.3671875,.779296875,2.5546875,1.169921875,4.19921875,1.169921875,4.93359375,0,1.28515625-.6044921875,2.455078125-1.8125,3.51171875-1.2099609375,1.0546875-2.5791015625,1.5830078125-4.1083984375,1.5830078125-1.28515625,0-2.5556640625-.6044921875-3.8095703125-1.8134765625-1.2548828125-1.2080078125-2.5859375-2.9599609375-3.9931640625-5.2548828125Zm-.826171875-18.1298828125c-1.8359375,.673828125-4.505859375,1.384765625-8.0087890625,2.134765625-3.5048828125,.75-5.9296875,1.30078125-7.275390625,1.65234375-1.3466796875,.3515625-2.6318359375,1.0400390625-3.85546875,2.064453125-1.224609375,1.0263671875-1.8359375,2.4560546875-1.8359375,4.2919921875,0,1.8974609375,.71875,3.5107421875,2.1572265625,4.8427734375,1.4375,1.330078125,3.3193359375,1.99609375,5.6455078125,1.99609375,2.478515625,0,4.765625-.54296875,6.861328125-1.62890625s3.6337890625-2.486328125,4.61328125-4.2001953125c1.1318359375-1.896484375,1.6982421875-5.017578125,1.6982421875-9.36328125v-1.7900390625Z"/>
    <path class="cls-1" d="M943.65234375,1492.5859375h2.9833984375v-3.763671875c0-3.916015625,.4970703125-7.029296875,1.4921875-9.3408203125,.9931640625-2.3095703125,2.6767578125-3.9921875,5.048828125-5.048828125,2.3701171875-1.0546875,5.6220703125-1.5830078125,9.7529296875-1.5830078125,7.3125,0,10.9697265625,1.7900390625,10.9697265625,5.3701171875,0,1.1630859375-.3828125,2.1572265625-1.1474609375,2.9833984375-.765625,.826171875-1.66796875,1.2392578125-2.7080078125,1.2392578125-.490234375,0-1.3310546875-.091796875-2.5244140625-.275390625s-2.203125-.275390625-3.029296875-.275390625c-2.2646484375,0-3.7177734375,.666015625-4.3603515625,1.99609375-.642578125,1.33203125-.9638671875,3.236328125-.9638671875,5.71484375v2.9833984375h3.0751953125c4.7734375,0,7.16015625,1.4384765625,7.16015625,4.314453125,0,2.05078125-.6357421875,3.3505859375-1.904296875,3.9013671875-1.2705078125,.55078125-3.0224609375,.826171875-5.255859375,.826171875h-3.0751953125v33.1845703125c0,2.478515625-.58984375,4.3681640625-1.7666015625,5.6689453125-1.1787109375,1.2998046875-2.701171875,1.9501953125-4.5673828125,1.9501953125-1.775390625,0-3.251953125-.650390625-4.4287109375-1.9501953125-1.1787109375-1.30078125-1.767578125-3.1904296875-1.767578125-5.6689453125v-33.1845703125h-3.4423828125c-1.8671875,0-3.3046875-.419921875-4.314453125-1.26171875s-1.5146484375-1.935546875-1.5146484375-3.2822265625c0-2.998046875,2.095703125-4.498046875,6.2880859375-4.498046875Z"/>
    <path class="cls-1" d="M1009.7001953125,1520.033203125h-24.509765625c.0302734375,2.845703125,.603515625,5.35546875,1.7216796875,7.52734375,1.1162109375,2.1728515625,2.599609375,3.8095703125,4.451171875,4.9111328125s3.8935546875,1.65234375,6.1279296875,1.65234375c1.4990234375,0,2.8681640625-.17578125,4.1083984375-.52734375,1.23828125-.3515625,2.439453125-.90234375,3.6025390625-1.65234375,1.162109375-.75,2.2333984375-1.552734375,3.212890625-2.41015625,.978515625-.8564453125,2.2490234375-2.01953125,3.8095703125-3.48828125,.642578125-.55078125,1.560546875-.826171875,2.75390625-.826171875,1.28515625,0,2.3251953125,.3525390625,3.12109375,1.0556640625,.794921875,.7041015625,1.193359375,1.6982421875,1.193359375,2.9833984375,0,1.1328125-.4443359375,2.455078125-1.3310546875,3.970703125-.8876953125,1.513671875-2.2255859375,2.9677734375-4.0166015625,4.359375-1.7890625,1.3935546875-4.0390625,2.5478515625-6.74609375,3.4658203125-2.708984375,.91796875-5.822265625,1.376953125-9.3408203125,1.376953125-8.0478515625,0-14.3056640625-2.294921875-18.7724609375-6.884765625-4.4677734375-4.58984375-6.701171875-10.81640625-6.701171875-18.6806640625,0-3.7021484375,.55078125-7.13671875,1.65234375-10.3046875,1.1015625-3.166015625,2.7080078125-5.8818359375,4.8193359375-8.146484375,2.111328125-2.263671875,4.7119140625-4,7.802734375-5.208984375,3.08984375-1.208984375,6.517578125-1.8134765625,10.28125-1.8134765625,4.8955078125,0,9.0947265625,1.0322265625,12.5986328125,3.0986328125,3.50390625,2.064453125,6.1279296875,4.7353515625,7.8720703125,8.0087890625,1.744140625,3.2744140625,2.6162109375,6.609375,2.6162109375,10.005859375,0,3.15234375-.9033203125,5.1943359375-2.7080078125,6.1279296875-1.8056640625,.93359375-4.345703125,1.3994140625-7.619140625,1.3994140625Zm-24.509765625-7.1142578125h22.7197265625c-.306640625-4.283203125-1.4619140625-7.48828125-3.46484375-9.615234375-2.0048828125-2.126953125-4.64453125-3.1904296875-7.91796875-3.1904296875-3.12109375,0-5.6845703125,1.0791015625-7.6875,3.2353515625-2.0048828125,2.158203125-3.2216796875,5.34765625-3.6494140625,9.5703125Z"/>
  </g>
  <image class="cls-3" width="1011" height="1024" transform="translate(312.675925925927004 836.714217679599642) scale(.547624281056524)" xlink:href="SplashScreen1.png"/>
</svg>